<svg xmlns="http://www.w3.org/2000/svg" viewBox="0 0 900 230" role="img" aria-label="Watercolor rose vine divider">
  <defs><linearGradient id="l" x1="0" x2="1"><stop stop-color="#9eb889"/><stop offset="1" stop-color="#426b58"/></linearGradient><radialGradient id="r"><stop stop-color="#ffe6e3"/><stop offset=".62" stop-color="#de8294"/><stop offset="1" stop-color="#a63851"/></radialGradient><filter id="w"><feTurbulence type="fractalNoise" baseFrequency=".045" numOctaves="2" seed="4"/><feBlend in="SourceGraphic" mode="multiply"/></filter></defs>
  <g filter="url(#w)" fill="none" stroke-linecap="round"><path d="M62 118c132-79 244-65 337 5 104 78 259 69 443-50" stroke="#647957" stroke-width="7" opacity=".6"/>
  <g fill="url(#l)" stroke="#49684f" stroke-width="2" opacity=".9"><path d="M142 80c-39-39-39-70 2-95 31 35 30 67-2 95z"/><path d="M233 143c-46 9-78-2-94-35 38-16 69-4 94 35z"/><path d="M622 137c47-20 83-17 108 9-33 24-69 22-108-9z"/><path d="M728 90c-32-39-29-72 9-100 29 36 26 70-9 100z"/><path d="M482 91c-45-11-70-33-74-68 40-1 65 21 74 68z"/></g>
  <g fill="url(#r)" stroke="#8f3e54" stroke-width="2"><g transform="translate(318 114)"><circle r="44"/><ellipse rx="52" ry="28" transform="rotate(35)" fill="#efb2bb"/><ellipse rx="42" ry="22" transform="rotate(100)" fill="#c8536c"/><circle r="13" fill="#f0c565"/></g><g transform="translate(570 123) scale(.72)"><circle r="44"/><ellipse rx="52" ry="28" transform="rotate(35)" fill="#f0b7bf"/><ellipse rx="42" ry="22" transform="rotate(100)" fill="#c84d66"/><circle r="12" fill="#f0c565"/></g></g></g>
</svg>
