<svg xmlns="http://www.w3.org/2000/svg" viewBox="0 0 720 520" role="img" aria-label="Soft watercolor bouquet illustration">
  <defs><radialGradient id="p"><stop stop-color="#fff6f2"/><stop offset=".55" stop-color="#f2a9a8"/><stop offset="1" stop-color="#c55768"/></radialGradient><linearGradient id="g" x1="0" x2="1"><stop stop-color="#cfdcaf"/><stop offset="1" stop-color="#426957"/></linearGradient><filter id="paper"><feTurbulence type="fractalNoise" baseFrequency=".04" numOctaves="4" seed="11"/><feBlend in="SourceGraphic" mode="multiply"/></filter></defs>
  <g filter="url(#paper)" opacity=".96"><g fill="none" stroke="#725643" stroke-width="5" opacity=".45"><path d="M352 502c-5-129-27-250-115-400"/><path d="M382 502c19-136 61-240 155-355"/><path d="M335 502c-53-132-112-222-233-303"/></g><g fill="url(#g)" stroke="#496b58" stroke-width="2"><path d="M166 178c-61-44-73-89-35-136 44 35 55 81 35 136z"/><path d="M248 254c-73 8-120-16-140-72 58-13 103 11 140 72z"/><path d="M464 248c63-44 118-51 165-20-47 43-102 49-165 20z"/><path d="M526 152c-33-65-23-116 30-154 30 53 20 105-30 154z"/></g><g stroke="#8b4055" stroke-width="2"><g transform="translate(239 155)"><ellipse rx="95" ry="60" fill="url(#p)"/><ellipse rx="75" ry="48" fill="#ffd8d7" transform="rotate(58)"/><ellipse rx="63" ry="40" fill="#d66278" transform="rotate(119)"/><circle r="24" fill="#f2c768"/></g><g transform="translate(445 190) scale(.92)"><ellipse rx="95" ry="60" fill="url(#p)"/><ellipse rx="75" ry="48" fill="#ffd3d2" transform="rotate(58)"/><ellipse rx="63" ry="40" fill="#ca536d" transform="rotate(119)"/><circle r="22" fill="#efc166"/></g><g transform="translate(345 322) scale(.76)"><ellipse rx="95" ry="60" fill="url(#p)"/><ellipse rx="75" ry="48" fill="#ffd6d6" transform="rotate(58)"/><ellipse rx="63" ry="40" fill="#cf5a72" transform="rotate(119)"/><circle r="20" fill="#f0c369"/></g></g></g>
</svg>
